<mxfile host="Electron" modified="2025-01-05T11:51:23.345Z" agent="Mozilla/5.0 (Windows NT 10.0; Win64; x64) AppleWebKit/537.36 (KHTML, like Gecko) draw.io/22.1.16 Chrome/120.0.6099.109 Electron/28.1.0 Safari/537.36" etag="oSjIYjQGuAop1YhkqHdh" version="22.1.16" type="device" pages="2">
  <diagram id="i-P3QelzV96mjnAAlYM3" name="Страница — 1">
    <mxGraphModel dx="1222" dy="645" grid="1" gridSize="10" guides="1" tooltips="1" connect="1" arrows="1" fold="1" page="1" pageScale="1" pageWidth="827" pageHeight="1169" math="0" shadow="0">
      <root>
        <mxCell id="0" />
        <mxCell id="1" parent="0" />
        <mxCell id="RGG0OeVftfBsG8pgENox-3" value="&lt;font style=&quot;font-size: 18px;&quot;&gt;Legend&lt;br&gt;&lt;br&gt;&lt;br&gt;&lt;br&gt;&lt;br&gt;&lt;/font&gt;" style="rounded=0;whiteSpace=wrap;html=1;align=right;fillColor=#CCCCCC;" vertex="1" parent="1">
          <mxGeometry x="20" y="10" width="630" height="110" as="geometry" />
        </mxCell>
        <mxCell id="RGG0OeVftfBsG8pgENox-1" value="Supportive Classes" style="rounded=1;whiteSpace=wrap;html=1;fillColor=#97D077;" vertex="1" parent="1">
          <mxGeometry x="40" y="40" width="120" height="50" as="geometry" />
        </mxCell>
        <mxCell id="RGG0OeVftfBsG8pgENox-2" value="WebPages" style="shape=document;whiteSpace=wrap;html=1;boundedLbl=1;" vertex="1" parent="1">
          <mxGeometry x="320" y="40" width="120" height="60" as="geometry" />
        </mxCell>
        <mxCell id="RGG0OeVftfBsG8pgENox-12" value="Browsing" style="rounded=0;orthogonalLoop=1;jettySize=auto;html=1;exitX=0.5;exitY=0.5;exitDx=0;exitDy=0;exitPerimeter=0;entryX=0;entryY=0.5;entryDx=0;entryDy=0;" edge="1" parent="1" source="RGG0OeVftfBsG8pgENox-4" target="RGG0OeVftfBsG8pgENox-5">
          <mxGeometry relative="1" as="geometry" />
        </mxCell>
        <mxCell id="RGG0OeVftfBsG8pgENox-4" value="Actor" style="shape=umlActor;verticalLabelPosition=bottom;verticalAlign=top;html=1;outlineConnect=0;" vertex="1" parent="1">
          <mxGeometry x="40" y="235" width="30" height="60" as="geometry" />
        </mxCell>
        <mxCell id="RGG0OeVftfBsG8pgENox-8" style="rounded=0;orthogonalLoop=1;jettySize=auto;html=1;exitX=1;exitY=0.25;exitDx=0;exitDy=0;entryX=0;entryY=0.5;entryDx=0;entryDy=0;" edge="1" parent="1" source="RGG0OeVftfBsG8pgENox-5" target="RGG0OeVftfBsG8pgENox-6">
          <mxGeometry relative="1" as="geometry" />
        </mxCell>
        <mxCell id="RGG0OeVftfBsG8pgENox-9" style="rounded=0;orthogonalLoop=1;jettySize=auto;html=1;exitX=1;exitY=0.5;exitDx=0;exitDy=0;entryX=0;entryY=0.5;entryDx=0;entryDy=0;" edge="1" parent="1" source="RGG0OeVftfBsG8pgENox-5" target="RGG0OeVftfBsG8pgENox-7">
          <mxGeometry relative="1" as="geometry" />
        </mxCell>
        <mxCell id="RGG0OeVftfBsG8pgENox-5" value="Site.Master.aspx" style="shape=document;whiteSpace=wrap;html=1;boundedLbl=1;" vertex="1" parent="1">
          <mxGeometry x="160" y="240" width="120" height="50" as="geometry" />
        </mxCell>
        <mxCell id="RGG0OeVftfBsG8pgENox-6" value="Default.aspx" style="shape=document;whiteSpace=wrap;html=1;boundedLbl=1;" vertex="1" parent="1">
          <mxGeometry x="320" y="190" width="120" height="50" as="geometry" />
        </mxCell>
        <mxCell id="5FAXPUMVHwIhnJs3nvXb-23" style="edgeStyle=orthogonalEdgeStyle;rounded=0;orthogonalLoop=1;jettySize=auto;html=1;exitX=1;exitY=0.5;exitDx=0;exitDy=0;entryX=0;entryY=0.5;entryDx=0;entryDy=0;" edge="1" parent="1" source="RGG0OeVftfBsG8pgENox-7" target="5FAXPUMVHwIhnJs3nvXb-17">
          <mxGeometry relative="1" as="geometry" />
        </mxCell>
        <mxCell id="RGG0OeVftfBsG8pgENox-7" value="Customers.aspx" style="shape=document;whiteSpace=wrap;html=1;boundedLbl=1;" vertex="1" parent="1">
          <mxGeometry x="320" y="270" width="120" height="50" as="geometry" />
        </mxCell>
        <mxCell id="RGG0OeVftfBsG8pgENox-10" value="Other Services" style="shape=hexagon;perimeter=hexagonPerimeter2;whiteSpace=wrap;html=1;fixedSize=1;" vertex="1" parent="1">
          <mxGeometry x="460" y="40" width="120" height="50" as="geometry" />
        </mxCell>
        <mxCell id="RGG0OeVftfBsG8pgENox-11" value="Other Services" style="shape=hexagon;perimeter=hexagonPerimeter2;whiteSpace=wrap;html=1;fixedSize=1;" vertex="1" parent="1">
          <mxGeometry x="10" y="360" width="120" height="50" as="geometry" />
        </mxCell>
        <mxCell id="5FAXPUMVHwIhnJs3nvXb-36" style="edgeStyle=orthogonalEdgeStyle;rounded=0;orthogonalLoop=1;jettySize=auto;html=1;exitX=0.5;exitY=0;exitDx=0;exitDy=0;entryX=0.5;entryY=1;entryDx=0;entryDy=0;" edge="1" parent="1" source="RGG0OeVftfBsG8pgENox-19" target="5FAXPUMVHwIhnJs3nvXb-11">
          <mxGeometry relative="1" as="geometry" />
        </mxCell>
        <mxCell id="RGG0OeVftfBsG8pgENox-19" value="Models/Customer" style="rounded=1;whiteSpace=wrap;html=1;fillColor=#97D077;" vertex="1" parent="1">
          <mxGeometry x="1080" y="700" width="150" height="50" as="geometry" />
        </mxCell>
        <mxCell id="5FAXPUMVHwIhnJs3nvXb-1" value="Models/Countries" style="rounded=1;whiteSpace=wrap;html=1;fillColor=#97D077;" vertex="1" parent="1">
          <mxGeometry x="710" y="150" width="150" height="50" as="geometry" />
        </mxCell>
        <mxCell id="5FAXPUMVHwIhnJs3nvXb-2" value="Models/USStates" style="rounded=1;whiteSpace=wrap;html=1;fillColor=#97D077;" vertex="1" parent="1">
          <mxGeometry x="1070" y="150" width="150" height="50" as="geometry" />
        </mxCell>
        <mxCell id="5FAXPUMVHwIhnJs3nvXb-3" value="Models/CanadianProvinces" style="rounded=1;whiteSpace=wrap;html=1;fillColor=#97D077;" vertex="1" parent="1">
          <mxGeometry x="890" y="150" width="150" height="50" as="geometry" />
        </mxCell>
        <mxCell id="5FAXPUMVHwIhnJs3nvXb-30" value="" style="edgeStyle=orthogonalEdgeStyle;rounded=0;orthogonalLoop=1;jettySize=auto;html=1;exitX=0.5;exitY=1;exitDx=0;exitDy=0;entryX=0.5;entryY=0;entryDx=0;entryDy=0;" edge="1" parent="1" source="5FAXPUMVHwIhnJs3nvXb-4" target="5FAXPUMVHwIhnJs3nvXb-16">
          <mxGeometry relative="1" as="geometry" />
        </mxCell>
        <mxCell id="5FAXPUMVHwIhnJs3nvXb-4" value="common/ValidationResult" style="rounded=1;whiteSpace=wrap;html=1;fillColor=#97D077;" vertex="1" parent="1">
          <mxGeometry x="1080" y="240" width="150" height="50" as="geometry" />
        </mxCell>
        <mxCell id="5FAXPUMVHwIhnJs3nvXb-5" value="CustomersController" style="rounded=1;whiteSpace=wrap;html=1;fillColor=#7EA6E0;" vertex="1" parent="1">
          <mxGeometry x="860" y="360" width="150" height="50" as="geometry" />
        </mxCell>
        <mxCell id="5FAXPUMVHwIhnJs3nvXb-6" value="Helpers/EmailValidator" style="rounded=1;whiteSpace=wrap;html=1;fillColor=#97D077;" vertex="1" parent="1">
          <mxGeometry x="1070" y="80" width="150" height="50" as="geometry" />
        </mxCell>
        <mxCell id="5FAXPUMVHwIhnJs3nvXb-7" value="Helpers/EnumExtensions" style="rounded=1;whiteSpace=wrap;html=1;fillColor=#97D077;" vertex="1" parent="1">
          <mxGeometry x="890" y="80" width="150" height="50" as="geometry" />
        </mxCell>
        <mxCell id="5FAXPUMVHwIhnJs3nvXb-37" style="edgeStyle=orthogonalEdgeStyle;rounded=0;orthogonalLoop=1;jettySize=auto;html=1;exitX=0.5;exitY=1;exitDx=0;exitDy=0;entryX=0.5;entryY=0;entryDx=0;entryDy=0;" edge="1" parent="1" source="5FAXPUMVHwIhnJs3nvXb-8" target="5FAXPUMVHwIhnJs3nvXb-17">
          <mxGeometry relative="1" as="geometry" />
        </mxCell>
        <mxCell id="5FAXPUMVHwIhnJs3nvXb-8" value="Helpers/HttpBodyHelper" style="rounded=1;whiteSpace=wrap;html=1;fillColor=#97D077;" vertex="1" parent="1">
          <mxGeometry x="510" y="185" width="150" height="50" as="geometry" />
        </mxCell>
        <mxCell id="5FAXPUMVHwIhnJs3nvXb-10" value="Helpers/PostalCodeValidator" style="rounded=1;whiteSpace=wrap;html=1;fillColor=#97D077;" vertex="1" parent="1">
          <mxGeometry x="710" y="80" width="150" height="50" as="geometry" />
        </mxCell>
        <mxCell id="5FAXPUMVHwIhnJs3nvXb-11" value="CustomersRepository" style="rounded=1;whiteSpace=wrap;html=1;fillColor=#7EA6E0;" vertex="1" parent="1">
          <mxGeometry x="1080" y="590" width="150" height="50" as="geometry" />
        </mxCell>
        <mxCell id="5FAXPUMVHwIhnJs3nvXb-33" style="rounded=0;orthogonalLoop=1;jettySize=auto;html=1;exitX=0.5;exitY=1;exitDx=0;exitDy=0;entryX=0.25;entryY=0;entryDx=0;entryDy=0;" edge="1" parent="1" source="5FAXPUMVHwIhnJs3nvXb-12" target="5FAXPUMVHwIhnJs3nvXb-11">
          <mxGeometry relative="1" as="geometry" />
        </mxCell>
        <mxCell id="5FAXPUMVHwIhnJs3nvXb-12" value="CustomerGetService" style="rounded=1;whiteSpace=wrap;html=1;fillColor=#7EA6E0;" vertex="1" parent="1">
          <mxGeometry x="995" y="470" width="150" height="50" as="geometry" />
        </mxCell>
        <mxCell id="5FAXPUMVHwIhnJs3nvXb-34" style="rounded=0;orthogonalLoop=1;jettySize=auto;html=1;exitX=0.5;exitY=1;exitDx=0;exitDy=0;entryX=0.75;entryY=0;entryDx=0;entryDy=0;" edge="1" parent="1" source="5FAXPUMVHwIhnJs3nvXb-14" target="5FAXPUMVHwIhnJs3nvXb-11">
          <mxGeometry relative="1" as="geometry" />
        </mxCell>
        <mxCell id="5FAXPUMVHwIhnJs3nvXb-14" value="CustomerManageService" style="rounded=1;whiteSpace=wrap;html=1;fillColor=#7EA6E0;" vertex="1" parent="1">
          <mxGeometry x="1165" y="470" width="150" height="50" as="geometry" />
        </mxCell>
        <mxCell id="5FAXPUMVHwIhnJs3nvXb-28" style="edgeStyle=orthogonalEdgeStyle;rounded=0;orthogonalLoop=1;jettySize=auto;html=1;exitX=0;exitY=0.5;exitDx=0;exitDy=0;entryX=1;entryY=0.5;entryDx=0;entryDy=0;" edge="1" parent="1" source="5FAXPUMVHwIhnJs3nvXb-16" target="5FAXPUMVHwIhnJs3nvXb-5">
          <mxGeometry relative="1" as="geometry" />
        </mxCell>
        <mxCell id="5FAXPUMVHwIhnJs3nvXb-31" style="rounded=0;orthogonalLoop=1;jettySize=auto;html=1;exitX=0.25;exitY=1;exitDx=0;exitDy=0;entryX=0.5;entryY=0;entryDx=0;entryDy=0;" edge="1" parent="1" source="5FAXPUMVHwIhnJs3nvXb-16" target="5FAXPUMVHwIhnJs3nvXb-12">
          <mxGeometry relative="1" as="geometry" />
        </mxCell>
        <mxCell id="5FAXPUMVHwIhnJs3nvXb-32" style="rounded=0;orthogonalLoop=1;jettySize=auto;html=1;exitX=0.75;exitY=1;exitDx=0;exitDy=0;" edge="1" parent="1" source="5FAXPUMVHwIhnJs3nvXb-16" target="5FAXPUMVHwIhnJs3nvXb-14">
          <mxGeometry relative="1" as="geometry" />
        </mxCell>
        <mxCell id="5FAXPUMVHwIhnJs3nvXb-16" value="CustomerValidationService" style="rounded=1;whiteSpace=wrap;html=1;fillColor=#7EA6E0;" vertex="1" parent="1">
          <mxGeometry x="1080" y="360" width="150" height="50" as="geometry" />
        </mxCell>
        <mxCell id="5FAXPUMVHwIhnJs3nvXb-17" value="RestulCustomerService" style="rounded=1;whiteSpace=wrap;html=1;fillColor=#7EA6E0;" vertex="1" parent="1">
          <mxGeometry x="510" y="270" width="150" height="50" as="geometry" />
        </mxCell>
        <mxCell id="5FAXPUMVHwIhnJs3nvXb-27" style="edgeStyle=orthogonalEdgeStyle;rounded=0;orthogonalLoop=1;jettySize=auto;html=1;exitX=0.875;exitY=0.5;exitDx=0;exitDy=0;exitPerimeter=0;entryX=0;entryY=0.5;entryDx=0;entryDy=0;" edge="1" parent="1" source="5FAXPUMVHwIhnJs3nvXb-24" target="5FAXPUMVHwIhnJs3nvXb-5">
          <mxGeometry relative="1" as="geometry" />
        </mxCell>
        <mxCell id="5FAXPUMVHwIhnJs3nvXb-24" value="HTTP" style="ellipse;shape=cloud;whiteSpace=wrap;html=1;" vertex="1" parent="1">
          <mxGeometry x="630" y="345" width="120" height="80" as="geometry" />
        </mxCell>
        <mxCell id="5FAXPUMVHwIhnJs3nvXb-25" style="rounded=0;orthogonalLoop=1;jettySize=auto;html=1;exitX=0.5;exitY=1;exitDx=0;exitDy=0;entryX=0.25;entryY=0.25;entryDx=0;entryDy=0;entryPerimeter=0;" edge="1" parent="1" source="5FAXPUMVHwIhnJs3nvXb-17" target="5FAXPUMVHwIhnJs3nvXb-24">
          <mxGeometry relative="1" as="geometry" />
        </mxCell>
        <mxCell id="5FAXPUMVHwIhnJs3nvXb-26" value="Direct Calls" style="rounded=0;orthogonalLoop=1;jettySize=auto;html=1;exitX=1;exitY=0.5;exitDx=0;exitDy=0;entryX=0.16;entryY=0.55;entryDx=0;entryDy=0;entryPerimeter=0;" edge="1" parent="1" source="RGG0OeVftfBsG8pgENox-11" target="5FAXPUMVHwIhnJs3nvXb-24">
          <mxGeometry relative="1" as="geometry" />
        </mxCell>
        <mxCell id="5FAXPUMVHwIhnJs3nvXb-38" value="Main Classes" style="rounded=1;whiteSpace=wrap;html=1;fillColor=#7EA6E0;" vertex="1" parent="1">
          <mxGeometry x="180" y="40" width="120" height="50" as="geometry" />
        </mxCell>
      </root>
    </mxGraphModel>
  </diagram>
  <diagram id="GCbuFlZyPh7hPLIau3oc" name="Страница — 2">
    <mxGraphModel dx="1222" dy="645" grid="1" gridSize="10" guides="1" tooltips="1" connect="1" arrows="1" fold="1" page="1" pageScale="1" pageWidth="827" pageHeight="1169" math="0" shadow="0">
      <root>
        <mxCell id="0" />
        <mxCell id="1" parent="0" />
      </root>
    </mxGraphModel>
  </diagram>
</mxfile>
